<svg id="twitter" xmlns="http://www.w3.org/2000/svg" width="30" height="30" viewBox="0 0 30 30">
  <path id="twitter-2" data-name="twitter" d="M17.4,3.906a6.367,6.367,0,0,1-2.048.639,4.041,4.041,0,0,0,1.57-2.25,6.677,6.677,0,0,1-2.266.988A3.378,3.378,0,0,0,12.046,2,3.84,3.84,0,0,0,8.479,6.067a4.632,4.632,0,0,0,.091.926A9.786,9.786,0,0,1,1.214,2.741,4.513,4.513,0,0,0,.731,4.786,4.235,4.235,0,0,0,2.317,8.17,3.26,3.26,0,0,1,.7,7.663v.051A3.972,3.972,0,0,0,3.563,11.7a3.168,3.168,0,0,1-.942.144,3.284,3.284,0,0,1-.673-.073A3.675,3.675,0,0,0,5.282,14.6,6.626,6.626,0,0,1,.848,16.343,6.271,6.271,0,0,1,0,16.284a9.221,9.221,0,0,0,5.473,1.828c6.564,0,10.156-6.2,10.156-11.576,0-.178,0-.352-.01-.527a7.8,7.8,0,0,0,1.78-2.1Z" transform="translate(6.004 4.999)" fill="#272839"/>
  <g id="Elipse_3" data-name="Elipse 3" fill="none" stroke="#272839" stroke-width="0.5">
    <circle cx="15" cy="15" r="15" stroke="none"/>
    <circle cx="15" cy="15" r="14.75" fill="none"/>
  </g>
</svg>
