<svg id="mesa-lampara" xmlns="http://www.w3.org/2000/svg" xmlns:xlink="http://www.w3.org/1999/xlink" width="940.507" height="741.713" viewBox="0 0 940.507 741.713">
<style>

#lampara{

animation: girarLampara 5s ease-in-out 300 alternate ; 
transform-box: fill-box;
}

@keyframes girarLampara {
  from{
    
    transform: translateX(70.84px) rotateZ(-5deg)  ;
  }

  to{
    transform: translateX(70.84px) rotateZ(10deg)  ;
  }

}


</style>

  <defs>
    <filter id="Trazado_16" x="585.978" y="161.713" width="281.75" height="282" filterUnits="userSpaceOnUse">
      <feOffset dx="3" dy="3" input="SourceAlpha"/>
      <feGaussianBlur stdDeviation="3" result="blur"/>
      <feFlood flood-opacity="0.561"/>
      <feComposite operator="in" in2="blur"/>
      <feComposite in="SourceGraphic"/>
    </filter>
    <filter id="Trazado_29" x="747.892" y="277.191" width="40.172" height="49.044" filterUnits="userSpaceOnUse">
      <feOffset dy="3" input="SourceAlpha"/>
      <feGaussianBlur stdDeviation="3" result="blur-2"/>
      <feFlood flood-color="#312b2b" flood-opacity="0.161"/>
      <feComposite operator="in" in2="blur-2"/>
      <feComposite in="SourceGraphic"/>
    </filter>
    <radialGradient id="radial-gradient" cx="0.5" cy="0.5" r="0.5" gradientUnits="objectBoundingBox">
      <stop offset="0" stop-color="#f2f2e6"/>
      <stop offset="1" stop-color="#d1d1a5"/>
    </radialGradient>
    <radialGradient id="radial-gradient-2" cx="0.5" cy="0.5" r="0.5" gradientUnits="objectBoundingBox">
      <stop offset="0" stop-color="#fefdfc"/>
      <stop offset="1" stop-color="#fcf6d7"/>
    </radialGradient>
  </defs>
  <g id="Trazado_11" data-name="Trazado 11" transform="translate(30.728 60.713)" fill="none" stroke-linejoin="round" >
    <path d="M727.667,35.667C798.333,72.333,933,415,906.333,450.333s-872-12.667-922.667-28,46.928-188.4,69.594-279.4S105,59,105,59,657-1,727.667,35.667Z" stroke="none"/>
    <path d="M 612.2002563476563 26.79861450195313 C 570.43896484375 26.79861450195313 517.8126220703125 28.64724731445313 455.7829895019531 32.29324340820313 C 406.1376342773438 35.21124267578125 350.3976440429688 39.28024291992188 290.1113891601563 44.38739013671875 C 187.4511108398438 53.08413696289063 106.1336059570313 61.89450073242188 105.3240966796875 61.98239135742188 C 105.1741333007813 61.99868774414063 105.0427856445313 62.00875854492188 104.9164428710938 62.00875854492188 C 104.7230224609375 62.00875854492188 104.5413818359375 61.98513793945313 104.3233642578125 61.92422485351563 C 104.232421875 61.9097900390625 103.9525756835938 61.87225341796875 103.5096435546875 61.87225341796875 C 102.4365234375 61.87225341796875 100.18115234375 62.098876953125 97.13360595703125 63.61611938476563 C 93.34375 65.50286865234375 89.50201416015625 68.75750732421875 85.71514892578125 73.28948974609375 C 80.65802001953125 79.34149169921875 75.79351806640625 87.58401489257813 71.25689697265625 97.78811645507813 C 65.7349853515625 110.2081298828125 60.65972900390625 125.6407470703125 56.1719970703125 143.6575012207031 C 52.7806396484375 157.2731323242188 47.38909912109375 173.9934997558594 39.68939208984375 194.7738647460938 C 32.83740234375 213.2666320800781 24.80474853515625 233.2668762207031 17.0364990234375 252.6085052490234 C 3.754150390625 285.6801147460938 -9.98052978515625 319.8776245117188 -18.59600830078125 348.390625 C -23.20465087890625 363.6431274414063 -26.00213623046875 376.0335083007813 -27.14837646484375 386.2698669433594 C -27.75885009765625 391.7225036621094 -27.8865966796875 396.5828857421875 -27.52813720703125 400.7158813476563 C -27.16510009765625 404.8989868164063 -26.295654296875 408.4482421875 -24.9437255859375 411.2647705078125 C -22.93035888671875 415.4595031738281 -19.82965087890625 418.1407470703125 -15.4642333984375 419.4618835449219 C -6.71197509765625 422.1105041503906 28.51611328125 426.0302429199219 83.73089599609375 430.4988708496094 C 137.769775390625 434.8724975585938 209.4832763671875 439.6498718261719 285.6611328125 443.9512634277344 C 367.6342468261719 448.5798645019531 451.4760131835938 452.4952392578125 528.1227416992188 455.2739868164063 C 615.213623046875 458.4313659667969 689.6596069335938 460.0323791503906 749.3928833007813 460.0323791503906 C 795.598876953125 460.0323791503906 832.2120971679688 459.0511169433594 858.2156372070313 457.1159973144531 C 872.004638671875 456.0898742675781 882.9515991210938 454.7818908691406 890.7525024414063 453.2282409667969 C 894.6736450195313 452.4473876953125 897.8380126953125 451.5975036621094 900.1573486328125 450.702392578125 C 902.9576416015625 449.6216430664063 903.7596435546875 448.7633666992188 903.9385986328125 448.5260009765625 C 905.0111083984375 447.1050109863281 905.7943725585938 444.8621215820313 906.2666015625 441.85986328125 C 906.7686157226563 438.6690063476563 906.9019775390625 434.6547546386719 906.6633911132813 429.9286193847656 C 906.1907348632813 420.5721435546875 904.2750244140625 408.4307556152344 900.9693603515625 393.8418579101563 C 894.96923828125 367.3616333007813 884.614501953125 333.755126953125 871.0245971679688 296.655517578125 C 857.431640625 259.5474853515625 841.443603515625 221.2431335449219 824.7891235351563 185.8833618164063 C 816.1223754882813 167.4826354980469 807.3937377929688 150.1412658691406 798.8458862304688 134.3408813476563 C 789.8818969726563 117.77099609375 781.1156005859375 102.8977661132813 772.7908935546875 90.13424682617188 C 764.0220947265625 76.69012451171875 755.688720703125 65.5057373046875 748.0225219726563 56.89224243164063 C 740.0297241210938 47.911865234375 732.7162475585938 41.66650390625 726.2850341796875 38.32962036132813 C 718.7169799804688 34.40286254882813 704.6439819335938 31.4322509765625 684.45703125 29.50048828125 C 665.7208862304688 27.707763671875 641.4102783203125 26.79861450195313 612.2002563476563 26.79861450195313 M 612.2001953125 23.798583984375 C 668.2325439453125 23.798583984375 711.1257934570313 27.08416748046875 727.666748046875 35.666748046875 C 798.33349609375 72.33349609375 933 415 906.333251953125 450.333251953125 C 899.4403076171875 459.4663391113281 837.8196411132813 463.0323791503906 749.3928833007813 463.0323791503906 C 495.721923828125 463.0323791503906 21.2369384765625 433.7030944824219 -16.333251953125 422.333251953125 C -67 407 30.5943603515625 233.932373046875 53.260986328125 142.932373046875 C 72.8798828125 64.16827392578125 97.29791259765625 58.87240600585938 103.5096435546875 58.87225341796875 C 104.4746704101563 58.87222290039063 105 59 105 59 C 105 59 428.8495483398438 23.798583984375 612.2001953125 23.798583984375 Z" stroke="none" fill="#707070"/>
  </g>
  <g id="Trazado_12" data-name="Trazado 12" transform="translate(63.728 618.713)" fill="none">
    <path d="M36-131.667H94.667L13.333,106H0Z" stroke="none"/>
    <path d="M 38.57981109619141 -128.666748046875 L 3.4886474609375 103 L 11.1890869140625 103 L 90.46928405761719 -128.666748046875 L 38.57981109619141 -128.666748046875 M 36.00000762939453 -131.666748046875 L 94.66674041748047 -131.666748046875 L 13.33324432373047 106 L 7.62939453125e-06 106 L 36.00000762939453 -131.666748046875 Z" stroke="none" fill="#707070"/>
  </g>
  <g id="Trazado_13" data-name="Trazado 13" transform="translate(731.323 635.713)" fill="none">
    <path d="M38.072-130.667l61.333,2.333L157.072,106h-18Z" stroke="none"/>
    <path d="M 42.68972778320313 -127.4888687133789 L 141.0532531738281 102.9999923706055 L 151.73828125 102.9999923706055 L 153.2440032958984 102.9999923706055 L 97.03211212158203 -125.4213485717773 L 42.68972778320313 -127.4888687133789 M 38.07177734375 -130.666748046875 L 99.40504455566406 -128.333251953125 L 157.07177734375 106 L 151.73828125 106 L 139.07177734375 106 L 38.07177734375 -130.666748046875 Z" stroke="none" fill="#707070"/>
  </g>
  <g id="Trazado_14" data-name="Trazado 14" transform="translate(-6.272 -45.287)" fill="none">
    <path d="M71.667,56.333C80,45,93.2,50.333,93.2,54.6s-1,6.6-6.2,14,16.667,227.733,16.667,227.733H76.82l-10.487,28S63.333,67.667,71.667,56.333Z" stroke="none"/>
    <path d="M 84.10885620117188 52.5418701171875 C 82.36611938476563 52.5418701171875 80.68104553222656 52.94119262695313 79.10050964355469 53.72882080078125 C 77.23175048828125 54.66000366210938 75.55286407470703 56.12213134765625 74.10959625244141 58.07525634765625 C 74.0296630859375 58.22323608398438 73.60982513427734 59.114990234375 73.08704376220703 62.33224487304688 C 72.68408203125 64.81216430664063 72.30216217041016 68.16903686523438 71.95188903808594 72.30966186523438 C 71.29250335693359 80.10452270507813 70.72739410400391 90.89208984375 70.27220153808594 104.3727416992188 C 69.503662109375 127.1327056884766 69.03200531005859 157.8525085449219 68.87027740478516 195.6788635253906 C 68.67807006835938 240.6376342773438 68.97575378417969 285.1639709472656 69.17579650878906 308.1899719238281 L 74.01050567626953 295.2810668945313 L 74.74000549316406 293.333251953125 L 76.81993103027344 293.333251953125 L 100.3567199707031 293.333251953125 C 99.10898590087891 280.6184692382813 94.49076843261719 233.1309509277344 90.39443206787109 185.498779296875 C 87.59569549560547 152.9550933837891 85.58423614501953 126.7082366943359 84.41596984863281 107.4873657226563 C 83.72046661376953 96.044189453125 83.31923675537109 86.9827880859375 83.22354888916016 80.5548095703125 C 83.06443023681641 69.87066650390625 83.72804260253906 68.03848266601563 84.54539489746094 66.87527465820313 C 87.21535491943359 63.07565307617188 88.54977416992188 60.92794799804688 89.30485534667969 59.2149658203125 C 89.94686126708984 57.75863647460938 90.18624114990234 56.57736206054688 90.19938659667969 54.76187133789063 C 90.06452178955078 54.5460205078125 89.59107971191406 54.02658081054688 88.54119873046875 53.51119995117188 C 87.26785278320313 52.88613891601563 85.69374084472656 52.5418701171875 84.10885620117188 52.5418701171875 M 84.10884857177734 49.5418701171875 C 89.14432525634766 49.5418701171875 93.19996643066406 52.234619140625 93.19996643066406 54.60009765625 C 93.19996643066406 58.866943359375 92.19996643066406 61.19992065429688 87.00000762939453 68.60009765625 C 81.800048828125 76.000244140625 103.6667327880859 296.333251953125 103.6667327880859 296.333251953125 L 76.81993103027344 296.333251953125 L 66.33323669433594 324.333251953125 C 66.33323669433594 324.333251953125 63.33350372314453 67.66650390625 71.66674041748047 56.333251953125 C 75.38018798828125 51.282958984375 80.061279296875 49.5418701171875 84.10884857177734 49.5418701171875 Z" stroke="none" fill="#707070"/>
  </g>
  <g transform="matrix(1, 0, 0, 1, 0, 0)" filter="url(#Trazado_16)">
    <g id="Trazado_16-2" data-name="Trazado 16" transform="translate(647.73 191.71)" fill="none" stroke-linejoin="round">
      <path d="M-55.75-.5,108-24,208,231.333,0,240Z" stroke="none"/>
      <path d="M 101.5779418945313 -12.97590637207031 L -43.54890441894531 7.851455688476563 L 7.869064331054688 229.6634521484375 L 193.5759582519531 221.9255676269531 L 101.5779418945313 -12.97590637207031 M 108 -24 L 208 231.3332214355469 L 0 240 L -55.75 -0.5 L 108 -24 Z" stroke="none" fill="#4e3c3c"/>
    </g>
  </g>
  <path id="Trazado_17" data-name="Trazado 17" d="M2764,2802l170-26" transform="translate(-2156.6 -2545.287)" fill="none" stroke="#707070" stroke-width="3"/>
  <path id="Trazado_18" data-name="Trazado 18" d="M2782.6,2866l172.711-22" transform="translate(-2156.578 -2545.287)" fill="none" stroke="#707070" stroke-width="3"/>
  <path id="Trazado_19" data-name="Trazado 19" d="M2796,2918l70.438-4.339L2980,2906.667" transform="translate(-2152.272 -2534.287)" fill="none" stroke="#707070" stroke-width="3"/>
  <g id="Trazado_20" data-name="Trazado 20" transform="matrix(0.985, -0.174, 0.174, 0.985, 645.398, 240.827)" fill="#707070" stroke-linecap="round" stroke-linejoin="round">
    <path d="M 5.929261684417725 23.25 C 3.581681966781616 23.25 1.419651865959167 21.92337989807129 -0.002448105718940496 19.61028861999512 C -1.470518112182617 17.2224292755127 -2.312498092651367 13.54875946044922 -2.312498092651367 9.531249046325684 C -2.312498092651367 5.513749122619629 -1.470518112182617 1.840079069137573 -0.002448105718940496 -0.5477909445762634 C 1.419651865959167 -2.860880851745605 3.581681966781616 -4.187500953674316 5.929261684417725 -4.187500953674316 C 8.27684211730957 -4.187500953674316 10.43886184692383 -2.860880851745605 11.8609619140625 -0.5477909445762634 C 11.9460620880127 -0.4093809425830841 12.02945232391357 -0.2656009495258331 12.22609233856201 0.09721904993057251 C 13.53089141845703 2.465129137039185 14.24395179748535 6.028599262237549 14.18411159515381 9.876978874206543 C 14.12374210357666 13.75942897796631 13.27698230743408 17.30707931518555 11.8609619140625 19.61028861999512 C 10.43886184692383 21.92337989807129 8.27684211730957 23.25 5.929261684417725 23.25 Z" stroke="none"/>
    <path d="M 5.929251670837402 -3.687501907348633 C 3.759322166442871 -3.687501907348633 1.752541542053223 -2.447671890258789 0.4234914779663086 -0.2859210968017578 C -0.9975185394287109 2.025388717651367 -1.812507629394531 5.603609085083008 -1.812507629394531 9.531249046325684 C -1.812507629394531 13.45888900756836 -0.9975185394287109 17.037109375 0.4234914779663086 19.34841918945313 C 1.752552032470703 21.51016998291016 3.759322166442871 22.75 5.929251670837402 22.75 C 8.099191665649414 22.75 10.10596179962158 21.51016998291016 11.43502235412598 19.34841918945313 C 12.80537223815918 17.11949920654297 13.62516212463379 13.66445922851563 13.68417167663574 9.869209289550781 C 13.74270153045654 6.105209350585938 13.0522518157959 2.632528305053711 11.78985214233398 0.3415985107421875 C 11.78873157501221 0.3395595550537109 11.78761196136475 0.3375186920166016 11.78650188446045 0.3354682922363281 C 11.59542179107666 -0.01710128784179688 11.51555156707764 -0.1549301147460938 11.43502235412598 -0.2859210968017578 C 10.10597229003906 -2.447671890258789 8.099191665649414 -3.687501907348633 5.929251670837402 -3.687501907348633 M 5.929256916046143 -4.687498092651367 C 8.313374519348145 -4.687498092651367 10.69749164581299 -3.394886016845703 12.28690147399902 -0.809661865234375 C 12.37590217590332 -0.6648902893066406 12.46242141723633 -0.5160617828369141 12.66568183898926 -0.141021728515625 C 15.46323204040527 4.935829162597656 15.37671184539795 14.84647941589355 12.28690147399902 19.87215995788574 C 10.69749164581299 22.45738410949707 8.313374519348145 23.74999618530273 5.929256916046143 23.74999618530273 C 3.545139312744141 23.74999618530273 1.161022186279297 22.45738410949707 -0.4283876419067383 19.87215995788574 C -3.607208251953125 14.70169925689697 -3.607208251953125 4.360798835754395 -0.4283876419067383 -0.809661865234375 C 1.161022186279297 -3.394886016845703 3.545139312744141 -4.687498092651367 5.929256916046143 -4.687498092651367 Z" stroke="none" fill="#707070"/>
  </g>
  <g id="Trazado_25" data-name="Trazado 25" transform="matrix(0.985, -0.174, 0.174, 0.985, 658.419, 304.857)" fill="#707070" stroke-linecap="round" stroke-linejoin="round">
    <path d="M 5.929261684417725 23.25 C 3.581681966781616 23.25 1.419651865959167 21.92337989807129 -0.002448105718940496 19.61028861999512 C -1.470518112182617 17.2224292755127 -2.312498092651367 13.54875946044922 -2.312498092651367 9.531249046325684 C -2.312498092651367 5.513749122619629 -1.470518112182617 1.840079069137573 -0.002448105718940496 -0.5477909445762634 C 1.419651865959167 -2.860880851745605 3.581681966781616 -4.187500953674316 5.929261684417725 -4.187500953674316 C 8.27684211730957 -4.187500953674316 10.43886184692383 -2.860880851745605 11.8609619140625 -0.5477909445762634 C 11.9460620880127 -0.4093809425830841 12.02945232391357 -0.2656009495258331 12.22609233856201 0.09721904993057251 C 13.53089141845703 2.465129137039185 14.24395179748535 6.028599262237549 14.18411159515381 9.876978874206543 C 14.12374210357666 13.75942897796631 13.27698230743408 17.30707931518555 11.8609619140625 19.61028861999512 C 10.43886184692383 21.92337989807129 8.27684211730957 23.25 5.929261684417725 23.25 Z" stroke="none"/>
    <path d="M 5.929251670837402 -3.687501907348633 C 3.759322166442871 -3.687501907348633 1.752541542053223 -2.447671890258789 0.4234914779663086 -0.2859210968017578 C -0.9975185394287109 2.025388717651367 -1.812507629394531 5.603609085083008 -1.812507629394531 9.531249046325684 C -1.812507629394531 13.45888900756836 -0.9975185394287109 17.037109375 0.4234914779663086 19.34841918945313 C 1.752552032470703 21.51016998291016 3.759322166442871 22.75 5.929251670837402 22.75 C 8.099191665649414 22.75 10.10596179962158 21.51016998291016 11.43502235412598 19.34841918945313 C 12.80537223815918 17.11949920654297 13.62516212463379 13.66445922851563 13.68417167663574 9.869209289550781 C 13.74270153045654 6.105209350585938 13.0522518157959 2.632528305053711 11.78985214233398 0.3415985107421875 C 11.78873157501221 0.3395595550537109 11.78761196136475 0.3375186920166016 11.78650188446045 0.3354682922363281 C 11.59542179107666 -0.01710128784179688 11.51555156707764 -0.1549301147460938 11.43502235412598 -0.2859210968017578 C 10.10597229003906 -2.447671890258789 8.099191665649414 -3.687501907348633 5.929251670837402 -3.687501907348633 M 5.929256916046143 -4.687498092651367 C 8.313374519348145 -4.687498092651367 10.69749164581299 -3.394886016845703 12.28690147399902 -0.809661865234375 C 12.37590217590332 -0.6648902893066406 12.46242141723633 -0.5160617828369141 12.66568183898926 -0.141021728515625 C 15.46323204040527 4.935829162597656 15.37671184539795 14.84647941589355 12.28690147399902 19.87215995788574 C 10.69749164581299 22.45738410949707 8.313374519348145 23.74999618530273 5.929256916046143 23.74999618530273 C 3.545139312744141 23.74999618530273 1.161022186279297 22.45738410949707 -0.4283876419067383 19.87215995788574 C -3.607208251953125 14.70169925689697 -3.607208251953125 4.360798835754395 -0.4283876419067383 -0.809661865234375 C 1.161022186279297 -3.394886016845703 3.545139312744141 -4.687498092651367 5.929256916046143 -4.687498092651367 Z" stroke="none" fill="#707070"/>
  </g>
  <g id="Trazado_21" data-name="Trazado 21" transform="matrix(0.985, -0.174, 0.174, 0.985, 667.57, 237.827)" fill="#707070" stroke-linecap="round" stroke-linejoin="round">
    <path d="M 5.929261684417725 23.25 C 3.581681966781616 23.25 1.419651865959167 21.92337989807129 -0.002448105718940496 19.61028861999512 C -1.470518112182617 17.2224292755127 -2.312498092651367 13.54875946044922 -2.312498092651367 9.531249046325684 C -2.312498092651367 5.513749122619629 -1.470518112182617 1.840079069137573 -0.002448105718940496 -0.5477909445762634 C 1.419651865959167 -2.860880851745605 3.581681966781616 -4.187500953674316 5.929261684417725 -4.187500953674316 C 8.27684211730957 -4.187500953674316 10.43886184692383 -2.860880851745605 11.8609619140625 -0.5477909445762634 C 11.9460620880127 -0.4093809425830841 12.02945232391357 -0.2656009495258331 12.22609233856201 0.09721904993057251 C 13.53089141845703 2.465129137039185 14.24395179748535 6.028599262237549 14.18411159515381 9.876978874206543 C 14.12374210357666 13.75942897796631 13.27698230743408 17.30707931518555 11.8609619140625 19.61028861999512 C 10.43886184692383 21.92337989807129 8.27684211730957 23.25 5.929261684417725 23.25 Z" stroke="none"/>
    <path d="M 5.929251670837402 -3.687501907348633 C 3.759322166442871 -3.687501907348633 1.752541542053223 -2.447671890258789 0.4234914779663086 -0.2859210968017578 C -0.9975185394287109 2.025388717651367 -1.812507629394531 5.603609085083008 -1.812507629394531 9.531249046325684 C -1.812507629394531 13.45888900756836 -0.9975185394287109 17.037109375 0.4234914779663086 19.34841918945313 C 1.752552032470703 21.51016998291016 3.759322166442871 22.75 5.929251670837402 22.75 C 8.099191665649414 22.75 10.10596179962158 21.51016998291016 11.43502235412598 19.34841918945313 C 12.80537223815918 17.11949920654297 13.62516212463379 13.66445922851563 13.68417167663574 9.869209289550781 C 13.74270153045654 6.105209350585938 13.0522518157959 2.632528305053711 11.78985214233398 0.3415985107421875 C 11.78873157501221 0.3395595550537109 11.78761196136475 0.3375186920166016 11.78650188446045 0.3354682922363281 C 11.59542179107666 -0.01710128784179688 11.51555156707764 -0.1549301147460938 11.43502235412598 -0.2859210968017578 C 10.10597229003906 -2.447671890258789 8.099191665649414 -3.687501907348633 5.929251670837402 -3.687501907348633 M 5.929256916046143 -4.687498092651367 C 8.313374519348145 -4.687498092651367 10.69749164581299 -3.394886016845703 12.28690147399902 -0.809661865234375 C 12.37590217590332 -0.6648902893066406 12.46242141723633 -0.5160617828369141 12.66568183898926 -0.141021728515625 C 15.46323204040527 4.935829162597656 15.37671184539795 14.84647941589355 12.28690147399902 19.87215995788574 C 10.69749164581299 22.45738410949707 8.313374519348145 23.74999618530273 5.929256916046143 23.74999618530273 C 3.545139312744141 23.74999618530273 1.161022186279297 22.45738410949707 -0.4283876419067383 19.87215995788574 C -3.607208251953125 14.70169925689697 -3.607208251953125 4.360798835754395 -0.4283876419067383 -0.809661865234375 C 1.161022186279297 -3.394886016845703 3.545139312744141 -4.687498092651367 5.929256916046143 -4.687498092651367 Z" stroke="none" fill="#707070"/>
  </g>
  <g id="Trazado_26" data-name="Trazado 26" transform="matrix(0.985, -0.174, 0.174, 0.985, 680.592, 301.857)" fill="#707070" stroke-linecap="round" stroke-linejoin="round">
    <path d="M 5.929261684417725 23.25 C 3.581681966781616 23.25 1.419651865959167 21.92337989807129 -0.002448105718940496 19.61028861999512 C -1.470518112182617 17.2224292755127 -2.312498092651367 13.54875946044922 -2.312498092651367 9.531249046325684 C -2.312498092651367 5.513749122619629 -1.470518112182617 1.840079069137573 -0.002448105718940496 -0.5477909445762634 C 1.419651865959167 -2.860880851745605 3.581681966781616 -4.187500953674316 5.929261684417725 -4.187500953674316 C 8.27684211730957 -4.187500953674316 10.43886184692383 -2.860880851745605 11.8609619140625 -0.5477909445762634 C 11.9460620880127 -0.4093809425830841 12.02945232391357 -0.2656009495258331 12.22609233856201 0.09721904993057251 C 13.53089141845703 2.465129137039185 14.24395179748535 6.028599262237549 14.18411159515381 9.876978874206543 C 14.12374210357666 13.75942897796631 13.27698230743408 17.30707931518555 11.8609619140625 19.61028861999512 C 10.43886184692383 21.92337989807129 8.27684211730957 23.25 5.929261684417725 23.25 Z" stroke="none"/>
    <path d="M 5.929251670837402 -3.687501907348633 C 3.759322166442871 -3.687501907348633 1.752541542053223 -2.447671890258789 0.4234914779663086 -0.2859210968017578 C -0.9975185394287109 2.025388717651367 -1.812507629394531 5.603609085083008 -1.812507629394531 9.531249046325684 C -1.812507629394531 13.45888900756836 -0.9975185394287109 17.037109375 0.4234914779663086 19.34841918945313 C 1.752552032470703 21.51016998291016 3.759322166442871 22.75 5.929251670837402 22.75 C 8.099191665649414 22.75 10.10596179962158 21.51016998291016 11.43502235412598 19.34841918945313 C 12.80537223815918 17.11949920654297 13.62516212463379 13.66445922851563 13.68417167663574 9.869209289550781 C 13.74270153045654 6.105209350585938 13.0522518157959 2.632528305053711 11.78985214233398 0.3415985107421875 C 11.78873157501221 0.3395595550537109 11.78761196136475 0.3375186920166016 11.78650188446045 0.3354682922363281 C 11.59542179107666 -0.01710128784179688 11.51555156707764 -0.1549301147460938 11.43502235412598 -0.2859210968017578 C 10.10597229003906 -2.447671890258789 8.099191665649414 -3.687501907348633 5.929251670837402 -3.687501907348633 M 5.929256916046143 -4.687498092651367 C 8.313374519348145 -4.687498092651367 10.69749164581299 -3.394886016845703 12.28690147399902 -0.809661865234375 C 12.37590217590332 -0.6648902893066406 12.46242141723633 -0.5160617828369141 12.66568183898926 -0.141021728515625 C 15.46323204040527 4.935829162597656 15.37671184539795 14.84647941589355 12.28690147399902 19.87215995788574 C 10.69749164581299 22.45738410949707 8.313374519348145 23.74999618530273 5.929256916046143 23.74999618530273 C 3.545139312744141 23.74999618530273 1.161022186279297 22.45738410949707 -0.4283876419067383 19.87215995788574 C -3.607208251953125 14.70169925689697 -3.607208251953125 4.360798835754395 -0.4283876419067383 -0.809661865234375 C 1.161022186279297 -3.394886016845703 3.545139312744141 -4.687498092651367 5.929256916046143 -4.687498092651367 Z" stroke="none" fill="#707070"/>
  </g>
  <g id="Trazado_30" data-name="Trazado 30" transform="matrix(0.985, -0.174, 0.174, 0.985, 682.592, 367.88)" fill="#707070" stroke-linecap="round" stroke-linejoin="round">
    <path d="M 5.929261684417725 23.25 C 3.581681966781616 23.25 1.419651865959167 21.92337989807129 -0.002448105718940496 19.61028861999512 C -1.470518112182617 17.2224292755127 -2.312498092651367 13.54875946044922 -2.312498092651367 9.531249046325684 C -2.312498092651367 5.513749122619629 -1.470518112182617 1.840079069137573 -0.002448105718940496 -0.5477909445762634 C 1.419651865959167 -2.860880851745605 3.581681966781616 -4.187500953674316 5.929261684417725 -4.187500953674316 C 8.27684211730957 -4.187500953674316 10.43886184692383 -2.860880851745605 11.8609619140625 -0.5477909445762634 C 11.9460620880127 -0.4093809425830841 12.02945232391357 -0.2656009495258331 12.22609233856201 0.09721904993057251 C 13.53089141845703 2.465129137039185 14.24395179748535 6.028599262237549 14.18411159515381 9.876978874206543 C 14.12374210357666 13.75942897796631 13.27698230743408 17.30707931518555 11.8609619140625 19.61028861999512 C 10.43886184692383 21.92337989807129 8.27684211730957 23.25 5.929261684417725 23.25 Z" stroke="none"/>
    <path d="M 5.929251670837402 -3.687501907348633 C 3.759322166442871 -3.687501907348633 1.752541542053223 -2.447671890258789 0.4234914779663086 -0.2859210968017578 C -0.9975185394287109 2.025388717651367 -1.812507629394531 5.603609085083008 -1.812507629394531 9.531249046325684 C -1.812507629394531 13.45888900756836 -0.9975185394287109 17.037109375 0.4234914779663086 19.34841918945313 C 1.752552032470703 21.51016998291016 3.759322166442871 22.75 5.929251670837402 22.75 C 8.099191665649414 22.75 10.10596179962158 21.51016998291016 11.43502235412598 19.34841918945313 C 12.80537223815918 17.11949920654297 13.62516212463379 13.66445922851563 13.68417167663574 9.869209289550781 C 13.74270153045654 6.105209350585938 13.0522518157959 2.632528305053711 11.78985214233398 0.3415985107421875 C 11.78873157501221 0.3395595550537109 11.78761196136475 0.3375186920166016 11.78650188446045 0.3354682922363281 C 11.59542179107666 -0.01710128784179688 11.51555156707764 -0.1549301147460938 11.43502235412598 -0.2859210968017578 C 10.10597229003906 -2.447671890258789 8.099191665649414 -3.687501907348633 5.929251670837402 -3.687501907348633 M 5.929256916046143 -4.687498092651367 C 8.313374519348145 -4.687498092651367 10.69749164581299 -3.394886016845703 12.28690147399902 -0.809661865234375 C 12.37590217590332 -0.6648902893066406 12.46242141723633 -0.5160617828369141 12.66568183898926 -0.141021728515625 C 15.46323204040527 4.935829162597656 15.37671184539795 14.84647941589355 12.28690147399902 19.87215995788574 C 10.69749164581299 22.45738410949707 8.313374519348145 23.74999618530273 5.929256916046143 23.74999618530273 C 3.545139312744141 23.74999618530273 1.161022186279297 22.45738410949707 -0.4283876419067383 19.87215995788574 C -3.607208251953125 14.70169925689697 -3.607208251953125 4.360798835754395 -0.4283876419067383 -0.809661865234375 C 1.161022186279297 -3.394886016845703 3.545139312744141 -4.687498092651367 5.929256916046143 -4.687498092651367 Z" stroke="none" fill="#707070"/>
  </g>
  <g id="Trazado_22" data-name="Trazado 22" transform="matrix(0.985, -0.174, 0.174, 0.985, 686.937, 234.827)" fill="#707070" stroke-linecap="round" stroke-linejoin="round">
    <path d="M 5.929261684417725 23.25 C 3.581681966781616 23.25 1.419651865959167 21.92337989807129 -0.002448105718940496 19.61028861999512 C -1.470518112182617 17.2224292755127 -2.312498092651367 13.54875946044922 -2.312498092651367 9.531249046325684 C -2.312498092651367 5.513749122619629 -1.470518112182617 1.840079069137573 -0.002448105718940496 -0.5477909445762634 C 1.419651865959167 -2.860880851745605 3.581681966781616 -4.187500953674316 5.929261684417725 -4.187500953674316 C 8.27684211730957 -4.187500953674316 10.43886184692383 -2.860880851745605 11.8609619140625 -0.5477909445762634 C 11.9460620880127 -0.4093809425830841 12.02945232391357 -0.2656009495258331 12.22609233856201 0.09721904993057251 C 13.53089141845703 2.465129137039185 14.24395179748535 6.028599262237549 14.18411159515381 9.876978874206543 C 14.12374210357666 13.75942897796631 13.27698230743408 17.30707931518555 11.8609619140625 19.61028861999512 C 10.43886184692383 21.92337989807129 8.27684211730957 23.25 5.929261684417725 23.25 Z" stroke="none"/>
    <path d="M 5.929251670837402 -3.687501907348633 C 3.759322166442871 -3.687501907348633 1.752541542053223 -2.447671890258789 0.4234914779663086 -0.2859210968017578 C -0.9975185394287109 2.025388717651367 -1.812507629394531 5.603609085083008 -1.812507629394531 9.531249046325684 C -1.812507629394531 13.45888900756836 -0.9975185394287109 17.037109375 0.4234914779663086 19.34841918945313 C 1.752552032470703 21.51016998291016 3.759322166442871 22.75 5.929251670837402 22.75 C 8.099191665649414 22.75 10.10596179962158 21.51016998291016 11.43502235412598 19.34841918945313 C 12.80537223815918 17.11949920654297 13.62516212463379 13.66445922851563 13.68417167663574 9.869209289550781 C 13.74270153045654 6.105209350585938 13.0522518157959 2.632528305053711 11.78985214233398 0.3415985107421875 C 11.78873157501221 0.3395595550537109 11.78761196136475 0.3375186920166016 11.78650188446045 0.3354682922363281 C 11.59542179107666 -0.01710128784179688 11.51555156707764 -0.1549301147460938 11.43502235412598 -0.2859210968017578 C 10.10597229003906 -2.447671890258789 8.099191665649414 -3.687501907348633 5.929251670837402 -3.687501907348633 M 5.929256916046143 -4.687498092651367 C 8.313374519348145 -4.687498092651367 10.69749164581299 -3.394886016845703 12.28690147399902 -0.809661865234375 C 12.37590217590332 -0.6648902893066406 12.46242141723633 -0.5160617828369141 12.66568183898926 -0.141021728515625 C 15.46323204040527 4.935829162597656 15.37671184539795 14.84647941589355 12.28690147399902 19.87215995788574 C 10.69749164581299 22.45738410949707 8.313374519348145 23.74999618530273 5.929256916046143 23.74999618530273 C 3.545139312744141 23.74999618530273 1.161022186279297 22.45738410949707 -0.4283876419067383 19.87215995788574 C -3.607208251953125 14.70169925689697 -3.607208251953125 4.360798835754395 -0.4283876419067383 -0.809661865234375 C 1.161022186279297 -3.394886016845703 3.545139312744141 -4.687498092651367 5.929256916046143 -4.687498092651367 Z" stroke="none" fill="#707070"/>
  </g>
  <g id="Trazado_27" data-name="Trazado 27" transform="matrix(0.985, -0.174, 0.174, 0.985, 703.958, 298.857)" fill="#707070" stroke-linecap="round" stroke-linejoin="round">
    <path d="M 5.929261684417725 23.25 C 3.581681966781616 23.25 1.419651865959167 21.92337989807129 -0.002448105718940496 19.61028861999512 C -1.470518112182617 17.2224292755127 -2.312498092651367 13.54875946044922 -2.312498092651367 9.531249046325684 C -2.312498092651367 5.513749122619629 -1.470518112182617 1.840079069137573 -0.002448105718940496 -0.5477909445762634 C 1.419651865959167 -2.860880851745605 3.581681966781616 -4.187500953674316 5.929261684417725 -4.187500953674316 C 8.27684211730957 -4.187500953674316 10.43886184692383 -2.860880851745605 11.8609619140625 -0.5477909445762634 C 11.9460620880127 -0.4093809425830841 12.02945232391357 -0.2656009495258331 12.22609233856201 0.09721904993057251 C 13.53089141845703 2.465129137039185 14.24395179748535 6.028599262237549 14.18411159515381 9.876978874206543 C 14.12374210357666 13.75942897796631 13.27698230743408 17.30707931518555 11.8609619140625 19.61028861999512 C 10.43886184692383 21.92337989807129 8.27684211730957 23.25 5.929261684417725 23.25 Z" stroke="none"/>
    <path d="M 5.929251670837402 -3.687501907348633 C 3.759322166442871 -3.687501907348633 1.752541542053223 -2.447671890258789 0.4234914779663086 -0.2859210968017578 C -0.9975185394287109 2.025388717651367 -1.812507629394531 5.603609085083008 -1.812507629394531 9.531249046325684 C -1.812507629394531 13.45888900756836 -0.9975185394287109 17.037109375 0.4234914779663086 19.34841918945313 C 1.752552032470703 21.51016998291016 3.759322166442871 22.75 5.929251670837402 22.75 C 8.099191665649414 22.75 10.10596179962158 21.51016998291016 11.43502235412598 19.34841918945313 C 12.80537223815918 17.11949920654297 13.62516212463379 13.66445922851563 13.68417167663574 9.869209289550781 C 13.74270153045654 6.105209350585938 13.0522518157959 2.632528305053711 11.78985214233398 0.3415985107421875 C 11.78873157501221 0.3395595550537109 11.78761196136475 0.3375186920166016 11.78650188446045 0.3354682922363281 C 11.59542179107666 -0.01710128784179688 11.51555156707764 -0.1549301147460938 11.43502235412598 -0.2859210968017578 C 10.10597229003906 -2.447671890258789 8.099191665649414 -3.687501907348633 5.929251670837402 -3.687501907348633 M 5.929256916046143 -4.687498092651367 C 8.313374519348145 -4.687498092651367 10.69749164581299 -3.394886016845703 12.28690147399902 -0.809661865234375 C 12.37590217590332 -0.6648902893066406 12.46242141723633 -0.5160617828369141 12.66568183898926 -0.141021728515625 C 15.46323204040527 4.935829162597656 15.37671184539795 14.84647941589355 12.28690147399902 19.87215995788574 C 10.69749164581299 22.45738410949707 8.313374519348145 23.74999618530273 5.929256916046143 23.74999618530273 C 3.545139312744141 23.74999618530273 1.161022186279297 22.45738410949707 -0.4283876419067383 19.87215995788574 C -3.607208251953125 14.70169925689697 -3.607208251953125 4.360798835754395 -0.4283876419067383 -0.809661865234375 C 1.161022186279297 -3.394886016845703 3.545139312744141 -4.687498092651367 5.929256916046143 -4.687498092651367 Z" stroke="none" fill="#707070"/>
  </g>
  <g id="Trazado_31" data-name="Trazado 31" transform="matrix(0.985, -0.174, 0.174, 0.985, 715.044, 369.691)" fill="#707070" stroke-linecap="round" stroke-linejoin="round">
    <path d="M 5.929261684417725 23.25 C 3.581681966781616 23.25 1.419651865959167 21.92337989807129 -0.002448105718940496 19.61028861999512 C -1.470518112182617 17.2224292755127 -2.312498092651367 13.54875946044922 -2.312498092651367 9.531249046325684 C -2.312498092651367 5.513749122619629 -1.470518112182617 1.840079069137573 -0.002448105718940496 -0.5477909445762634 C 1.419651865959167 -2.860880851745605 3.581681966781616 -4.187500953674316 5.929261684417725 -4.187500953674316 C 8.27684211730957 -4.187500953674316 10.43886184692383 -2.860880851745605 11.8609619140625 -0.5477909445762634 C 11.9460620880127 -0.4093809425830841 12.02945232391357 -0.2656009495258331 12.22609233856201 0.09721904993057251 C 13.53089141845703 2.465129137039185 14.24395179748535 6.028599262237549 14.18411159515381 9.876978874206543 C 14.12374210357666 13.75942897796631 13.27698230743408 17.30707931518555 11.8609619140625 19.61028861999512 C 10.43886184692383 21.92337989807129 8.27684211730957 23.25 5.929261684417725 23.25 Z" stroke="none"/>
    <path d="M 5.929251670837402 -3.687501907348633 C 3.759322166442871 -3.687501907348633 1.752541542053223 -2.447671890258789 0.4234914779663086 -0.2859210968017578 C -0.9975185394287109 2.025388717651367 -1.812507629394531 5.603609085083008 -1.812507629394531 9.531249046325684 C -1.812507629394531 13.45888900756836 -0.9975185394287109 17.037109375 0.4234914779663086 19.34841918945313 C 1.752552032470703 21.51016998291016 3.759322166442871 22.75 5.929251670837402 22.75 C 8.099191665649414 22.75 10.10596179962158 21.51016998291016 11.43502235412598 19.34841918945313 C 12.80537223815918 17.11949920654297 13.62516212463379 13.66445922851563 13.68417167663574 9.869209289550781 C 13.74270153045654 6.105209350585938 13.0522518157959 2.632528305053711 11.78985214233398 0.3415985107421875 C 11.78873157501221 0.3395595550537109 11.78761196136475 0.3375186920166016 11.78650188446045 0.3354682922363281 C 11.59542179107666 -0.01710128784179688 11.51555156707764 -0.1549301147460938 11.43502235412598 -0.2859210968017578 C 10.10597229003906 -2.447671890258789 8.099191665649414 -3.687501907348633 5.929251670837402 -3.687501907348633 M 5.929256916046143 -4.687498092651367 C 8.313374519348145 -4.687498092651367 10.69749164581299 -3.394886016845703 12.28690147399902 -0.809661865234375 C 12.37590217590332 -0.6648902893066406 12.46242141723633 -0.5160617828369141 12.66568183898926 -0.141021728515625 C 15.46323204040527 4.935829162597656 15.37671184539795 14.84647941589355 12.28690147399902 19.87215995788574 C 10.69749164581299 22.45738410949707 8.313374519348145 23.74999618530273 5.929256916046143 23.74999618530273 C 3.545139312744141 23.74999618530273 1.161022186279297 22.45738410949707 -0.4283876419067383 19.87215995788574 C -3.607208251953125 14.70169925689697 -3.607208251953125 4.360798835754395 -0.4283876419067383 -0.809661865234375 C 1.161022186279297 -3.394886016845703 3.545139312744141 -4.687498092651367 5.929256916046143 -4.687498092651367 Z" stroke="none" fill="#707070"/>
  </g>
  <g id="Trazado_23" data-name="Trazado 23" transform="matrix(0.985, -0.174, 0.174, 0.985, 714.303, 230.827)" fill="#707070" stroke-linecap="round" stroke-linejoin="round">
    <path d="M 5.929261684417725 23.25 C 3.581681966781616 23.25 1.419651865959167 21.92337989807129 -0.002448105718940496 19.61028861999512 C -1.470518112182617 17.2224292755127 -2.312498092651367 13.54875946044922 -2.312498092651367 9.531249046325684 C -2.312498092651367 5.513749122619629 -1.470518112182617 1.840079069137573 -0.002448105718940496 -0.5477909445762634 C 1.419651865959167 -2.860880851745605 3.581681966781616 -4.187500953674316 5.929261684417725 -4.187500953674316 C 8.27684211730957 -4.187500953674316 10.43886184692383 -2.860880851745605 11.8609619140625 -0.5477909445762634 C 11.9460620880127 -0.4093809425830841 12.02945232391357 -0.2656009495258331 12.22609233856201 0.09721904993057251 C 13.53089141845703 2.465129137039185 14.24395179748535 6.028599262237549 14.18411159515381 9.876978874206543 C 14.12374210357666 13.75942897796631 13.27698230743408 17.30707931518555 11.8609619140625 19.61028861999512 C 10.43886184692383 21.92337989807129 8.27684211730957 23.25 5.929261684417725 23.25 Z" stroke="none"/>
    <path d="M 5.929251670837402 -3.687501907348633 C 3.759322166442871 -3.687501907348633 1.752541542053223 -2.447671890258789 0.4234914779663086 -0.2859210968017578 C -0.9975185394287109 2.025388717651367 -1.812507629394531 5.603609085083008 -1.812507629394531 9.531249046325684 C -1.812507629394531 13.45888900756836 -0.9975185394287109 17.037109375 0.4234914779663086 19.34841918945313 C 1.752552032470703 21.51016998291016 3.759322166442871 22.75 5.929251670837402 22.75 C 8.099191665649414 22.75 10.10596179962158 21.51016998291016 11.43502235412598 19.34841918945313 C 12.80537223815918 17.11949920654297 13.62516212463379 13.66445922851563 13.68417167663574 9.869209289550781 C 13.74270153045654 6.105209350585938 13.0522518157959 2.632528305053711 11.78985214233398 0.3415985107421875 C 11.78873157501221 0.3395595550537109 11.78761196136475 0.3375186920166016 11.78650188446045 0.3354682922363281 C 11.59542179107666 -0.01710128784179688 11.51555156707764 -0.1549301147460938 11.43502235412598 -0.2859210968017578 C 10.10597229003906 -2.447671890258789 8.099191665649414 -3.687501907348633 5.929251670837402 -3.687501907348633 M 5.929256916046143 -4.687498092651367 C 8.313374519348145 -4.687498092651367 10.69749164581299 -3.394886016845703 12.28690147399902 -0.809661865234375 C 12.37590217590332 -0.6648902893066406 12.46242141723633 -0.5160617828369141 12.66568183898926 -0.141021728515625 C 15.46323204040527 4.935829162597656 15.37671184539795 14.84647941589355 12.28690147399902 19.87215995788574 C 10.69749164581299 22.45738410949707 8.313374519348145 23.74999618530273 5.929256916046143 23.74999618530273 C 3.545139312744141 23.74999618530273 1.161022186279297 22.45738410949707 -0.4283876419067383 19.87215995788574 C -3.607208251953125 14.70169925689697 -3.607208251953125 4.360798835754395 -0.4283876419067383 -0.809661865234375 C 1.161022186279297 -3.394886016845703 3.545139312744141 -4.687498092651367 5.929256916046143 -4.687498092651367 Z" stroke="none" fill="#707070"/>
  </g>
  <g id="Trazado_28" data-name="Trazado 28" transform="matrix(0.985, -0.174, 0.174, 0.985, 732.325, 295.357)" fill="#707070" stroke-linecap="round" stroke-linejoin="round">
    <path d="M 5.929261684417725 23.25 C 3.581681966781616 23.25 1.419651865959167 21.92337989807129 -0.002448105718940496 19.61028861999512 C -1.470518112182617 17.2224292755127 -2.312498092651367 13.54875946044922 -2.312498092651367 9.531249046325684 C -2.312498092651367 5.513749122619629 -1.470518112182617 1.840079069137573 -0.002448105718940496 -0.5477909445762634 C 1.419651865959167 -2.860880851745605 3.581681966781616 -4.187500953674316 5.929261684417725 -4.187500953674316 C 8.27684211730957 -4.187500953674316 10.43886184692383 -2.860880851745605 11.8609619140625 -0.5477909445762634 C 11.9460620880127 -0.4093809425830841 12.02945232391357 -0.2656009495258331 12.22609233856201 0.09721904993057251 C 13.53089141845703 2.465129137039185 14.24395179748535 6.028599262237549 14.18411159515381 9.876978874206543 C 14.12374210357666 13.75942897796631 13.27698230743408 17.30707931518555 11.8609619140625 19.61028861999512 C 10.43886184692383 21.92337989807129 8.27684211730957 23.25 5.929261684417725 23.25 Z" stroke="none"/>
    <path d="M 5.929251670837402 -3.687501907348633 C 3.759322166442871 -3.687501907348633 1.752541542053223 -2.447671890258789 0.4234914779663086 -0.2859210968017578 C -0.9975185394287109 2.025388717651367 -1.812507629394531 5.603609085083008 -1.812507629394531 9.531249046325684 C -1.812507629394531 13.45888900756836 -0.9975185394287109 17.037109375 0.4234914779663086 19.34841918945313 C 1.752552032470703 21.51016998291016 3.759322166442871 22.75 5.929251670837402 22.75 C 8.099191665649414 22.75 10.10596179962158 21.51016998291016 11.43502235412598 19.34841918945313 C 12.80537223815918 17.11949920654297 13.62516212463379 13.66445922851563 13.68417167663574 9.869209289550781 C 13.74270153045654 6.105209350585938 13.0522518157959 2.632528305053711 11.78985214233398 0.3415985107421875 C 11.78873157501221 0.3395595550537109 11.78761196136475 0.3375186920166016 11.78650188446045 0.3354682922363281 C 11.59542179107666 -0.01710128784179688 11.51555156707764 -0.1549301147460938 11.43502235412598 -0.2859210968017578 C 10.10597229003906 -2.447671890258789 8.099191665649414 -3.687501907348633 5.929251670837402 -3.687501907348633 M 5.929256916046143 -4.687498092651367 C 8.313374519348145 -4.687498092651367 10.69749164581299 -3.394886016845703 12.28690147399902 -0.809661865234375 C 12.37590217590332 -0.6648902893066406 12.46242141723633 -0.5160617828369141 12.66568183898926 -0.141021728515625 C 15.46323204040527 4.935829162597656 15.37671184539795 14.84647941589355 12.28690147399902 19.87215995788574 C 10.69749164581299 22.45738410949707 8.313374519348145 23.74999618530273 5.929256916046143 23.74999618530273 C 3.545139312744141 23.74999618530273 1.161022186279297 22.45738410949707 -0.4283876419067383 19.87215995788574 C -3.607208251953125 14.70169925689697 -3.607208251953125 4.360798835754395 -0.4283876419067383 -0.809661865234375 C 1.161022186279297 -3.394886016845703 3.545139312744141 -4.687498092651367 5.929256916046143 -4.687498092651367 Z" stroke="none" fill="#707070"/>
  </g>
  <g id="Trazado_24" data-name="Trazado 24" transform="matrix(0.985, -0.174, 0.174, 0.985, 738.303, 227.827)" fill="#707070" stroke-linecap="round" stroke-linejoin="round">
    <path d="M 5.929261684417725 23.25 C 3.581681966781616 23.25 1.419651865959167 21.92337989807129 -0.002448105718940496 19.61028861999512 C -1.470518112182617 17.2224292755127 -2.312498092651367 13.54875946044922 -2.312498092651367 9.531249046325684 C -2.312498092651367 5.513749122619629 -1.470518112182617 1.840079069137573 -0.002448105718940496 -0.5477909445762634 C 1.419651865959167 -2.860880851745605 3.581681966781616 -4.187500953674316 5.929261684417725 -4.187500953674316 C 8.27684211730957 -4.187500953674316 10.43886184692383 -2.860880851745605 11.8609619140625 -0.5477909445762634 C 11.9460620880127 -0.4093809425830841 12.02945232391357 -0.2656009495258331 12.22609233856201 0.09721904993057251 C 13.53089141845703 2.465129137039185 14.24395179748535 6.028599262237549 14.18411159515381 9.876978874206543 C 14.12374210357666 13.75942897796631 13.27698230743408 17.30707931518555 11.8609619140625 19.61028861999512 C 10.43886184692383 21.92337989807129 8.27684211730957 23.25 5.929261684417725 23.25 Z" stroke="none"/>
    <path d="M 5.929251670837402 -3.687501907348633 C 3.759322166442871 -3.687501907348633 1.752541542053223 -2.447671890258789 0.4234914779663086 -0.2859210968017578 C -0.9975185394287109 2.025388717651367 -1.812507629394531 5.603609085083008 -1.812507629394531 9.531249046325684 C -1.812507629394531 13.45888900756836 -0.9975185394287109 17.037109375 0.4234914779663086 19.34841918945313 C 1.752552032470703 21.51016998291016 3.759322166442871 22.75 5.929251670837402 22.75 C 8.099191665649414 22.75 10.10596179962158 21.51016998291016 11.43502235412598 19.34841918945313 C 12.80537223815918 17.11949920654297 13.62516212463379 13.66445922851563 13.68417167663574 9.869209289550781 C 13.74270153045654 6.105209350585938 13.0522518157959 2.632528305053711 11.78985214233398 0.3415985107421875 C 11.78873157501221 0.3395595550537109 11.78761196136475 0.3375186920166016 11.78650188446045 0.3354682922363281 C 11.59542179107666 -0.01710128784179688 11.51555156707764 -0.1549301147460938 11.43502235412598 -0.2859210968017578 C 10.10597229003906 -2.447671890258789 8.099191665649414 -3.687501907348633 5.929251670837402 -3.687501907348633 M 5.929256916046143 -4.687498092651367 C 8.313374519348145 -4.687498092651367 10.69749164581299 -3.394886016845703 12.28690147399902 -0.809661865234375 C 12.37590217590332 -0.6648902893066406 12.46242141723633 -0.5160617828369141 12.66568183898926 -0.141021728515625 C 15.46323204040527 4.935829162597656 15.37671184539795 14.84647941589355 12.28690147399902 19.87215995788574 C 10.69749164581299 22.45738410949707 8.313374519348145 23.74999618530273 5.929256916046143 23.74999618530273 C 3.545139312744141 23.74999618530273 1.161022186279297 22.45738410949707 -0.4283876419067383 19.87215995788574 C -3.607208251953125 14.70169925689697 -3.607208251953125 4.360798835754395 -0.4283876419067383 -0.809661865234375 C 1.161022186279297 -3.394886016845703 3.545139312744141 -4.687498092651367 5.929256916046143 -4.687498092651367 Z" stroke="none" fill="#707070"/>
  </g>
  <g transform="matrix(1, 0, 0, 1, 0, 0)" filter="url(#Trazado_29)">
    <g id="Trazado_29-2" data-name="Trazado 29" transform="matrix(0.98, -0.17, 0.17, 0.98, 760.48, 290.36)" fill="#707070" stroke-linecap="round" stroke-linejoin="round">
      <path d="M 5.929261684417725 23.25 C 3.581681966781616 23.25 1.419651865959167 21.92337989807129 -0.002448105718940496 19.61028861999512 C -1.470518112182617 17.2224292755127 -2.312498092651367 13.54875946044922 -2.312498092651367 9.531249046325684 C -2.312498092651367 5.513749122619629 -1.470518112182617 1.840079069137573 -0.002448105718940496 -0.5477909445762634 C 1.419651865959167 -2.860880851745605 3.581681966781616 -4.187500953674316 5.929261684417725 -4.187500953674316 C 8.27684211730957 -4.187500953674316 10.43886184692383 -2.860880851745605 11.8609619140625 -0.5477909445762634 C 11.9460620880127 -0.4093809425830841 12.02945232391357 -0.2656009495258331 12.22609233856201 0.09721904993057251 C 13.53089141845703 2.465129137039185 14.24395179748535 6.028599262237549 14.18411159515381 9.876978874206543 C 14.12374210357666 13.75942897796631 13.27698230743408 17.30707931518555 11.8609619140625 19.61028861999512 C 10.43886184692383 21.92337989807129 8.27684211730957 23.25 5.929261684417725 23.25 Z" stroke="none"/>
      <path d="M 5.929251670837402 -3.687501907348633 C 3.759322166442871 -3.687501907348633 1.752541542053223 -2.447671890258789 0.4234914779663086 -0.2859210968017578 C -0.9975185394287109 2.025388717651367 -1.812507629394531 5.603609085083008 -1.812507629394531 9.531249046325684 C -1.812507629394531 13.45888900756836 -0.9975185394287109 17.037109375 0.4234914779663086 19.34841918945313 C 1.752552032470703 21.51016998291016 3.759322166442871 22.75 5.929251670837402 22.75 C 8.099191665649414 22.75 10.10596179962158 21.51016998291016 11.43502235412598 19.34841918945313 C 12.80537223815918 17.11949920654297 13.62516212463379 13.66445922851563 13.68417167663574 9.869209289550781 C 13.74270153045654 6.105209350585938 13.0522518157959 2.632528305053711 11.78985214233398 0.3415985107421875 C 11.78873157501221 0.3395595550537109 11.78761196136475 0.3375186920166016 11.78650188446045 0.3354682922363281 C 11.59542179107666 -0.01710128784179688 11.51555156707764 -0.1549301147460938 11.43502235412598 -0.2859210968017578 C 10.10597229003906 -2.447671890258789 8.099191665649414 -3.687501907348633 5.929251670837402 -3.687501907348633 M 5.929256916046143 -4.687498092651367 C 8.313374519348145 -4.687498092651367 10.69749164581299 -3.394886016845703 12.28690147399902 -0.809661865234375 C 12.37590217590332 -0.6648902893066406 12.46242141723633 -0.5160617828369141 12.66568183898926 -0.141021728515625 C 15.46323204040527 4.935829162597656 15.37671184539795 14.84647941589355 12.28690147399902 19.87215995788574 C 10.69749164581299 22.45738410949707 8.313374519348145 23.74999618530273 5.929256916046143 23.74999618530273 C 3.545139312744141 23.74999618530273 1.161022186279297 22.45738410949707 -0.4283876419067383 19.87215995788574 C -3.607208251953125 14.70169925689697 -3.607208251953125 4.360798835754395 -0.4283876419067383 -0.809661865234375 C 1.161022186279297 -3.394886016845703 3.545139312744141 -4.687498092651367 5.929256916046143 -4.687498092651367 Z" stroke="none" fill="#707070"/>
    </g>
  </g>
  <g id="Elipse_1" data-name="Elipse 1" transform="translate(76.728 9.713)" fill="none" stroke="#707070" stroke-width="3">
    <circle cx="2" cy="2" r="2" stroke="none"/>
    <circle cx="2" cy="2" r="0.5" fill="none"/>
  </g>
  <g id="Trazado_35" data-name="Trazado 35" transform="translate(195.728 55.515)" fill="url(#radial-gradient)">
    <path d="M-19.4,10.2C-9.605,8.131-29.4,13.4-19.4,10.2Z" stroke="none"/>
    <path d="M -16.66445922851563 9.703300476074219 C -16.61632347106934 9.703285217285156 -16.59372711181641 9.709382057189941 -16.59380912780762 9.720776557922363 C -16.59372711181641 9.709382057189941 -16.61632347106934 9.703285217285156 -16.66445922851563 9.703300476074219 Z M -16.59380912780762 9.720776557922363 C -16.59502601623535 9.891610145568848 -21.69491195678711 11.25939464569092 -22.25823593139648 11.25939464569092 C -21.69491195678711 11.25939464569092 -16.59502601623535 9.891610145568848 -16.59380912780762 9.720776557922363 Z" stroke="none" fill="#707070"/>
  </g>
  <g id="lampara" transform="translate(70.84)">
    <g id="Trazado_15" data-name="Trazado 15" transform="matrix(0.966, -0.259, 0.259, 0.966, 103.074, 18.473)" fill="none">
      <path d="M26,0C50.875,11.293,58.143,45.023,55,47.667s-87.506-.482-87.506-.482-.386-12.685,4.168-24.248c.632-1.6,4.438-6.014,4.438-7.87C-14.287,2.374,1.125-11.293,26,0Z" stroke="none"/>
      <path d="M 8.340810775756836 -1.202556610107422 C 5.131481170654297 -1.202556610107422 1.983339309692383 -0.6863975524902344 -1.016132354736328 0.3316001892089844 C -3.736331939697266 1.254802703857422 -6.423933029174805 2.620986938476563 -9.004261016845703 4.392189025878906 C -13.12211990356445 7.218782424926758 -17.07130432128906 11.11627960205078 -21.06166076660156 16.2943172454834 C -21.46663665771484 17.88925170898438 -22.60599136352539 19.6384162902832 -24.17343139648438 21.91913032531738 C -24.66062927246094 22.62803268432617 -25.39584350585938 23.69779968261719 -25.55134201049805 24.04858779907227 C -27.76162719726563 29.66574859619141 -28.71979522705078 35.60517120361328 -29.13451766967773 39.60005950927734 C -29.32509613037109 41.43588256835938 -29.42160034179688 43.04195022583008 -29.46931838989258 44.2913818359375 C -19.53618621826172 44.63785934448242 13.4538688659668 45.72870254516602 35.01865386962891 45.72870254516602 C 40.2648811340332 45.72870254516602 44.52846527099609 45.66398620605469 47.69099426269531 45.53635787963867 C 50.33472442626953 45.42966842651367 51.83856201171875 45.29391479492188 52.67999267578125 45.18541717529297 C 52.72098541259766 44.18384552001953 52.61892700195313 42.3093376159668 51.99066925048828 39.42094421386719 C 51.11663818359375 35.40266036987305 49.53136825561523 30.8840446472168 47.52689361572266 26.69750213623047 C 45.05880737304688 21.54264450073242 42.03800964355469 16.95548820495605 38.54843902587891 13.0634880065918 C 34.46275329589844 8.506629943847656 29.82361030578613 5.030502319335938 24.75986671447754 2.731685638427734 C 19.00943946838379 0.1211166381835938 13.48526763916016 -1.202556610107422 8.340810775756836 -1.202556610107422 M 8.340812683105469 -4.202556610107422 C 13.62229633331299 -4.202556610107422 19.48671340942383 -2.956886291503906 25.99999618530273 0 C 50.87496948242188 11.29267311096191 58.1425666809082 45.02295684814453 54.99999618530273 47.66674423217773 C 54.06608581542969 48.45243072509766 45.95286560058594 48.72870635986328 35.01865768432617 48.72870635986328 C 9.159666061401367 48.72870635986328 -32.50581741333008 47.18514251708984 -32.50581741333008 47.18514251708984 C -32.50581741333008 47.18514251708984 -32.8915901184082 34.50007247924805 -28.33808898925781 22.93762969970703 C -27.70639038085938 21.34060096740723 -23.90008926391602 16.92378807067871 -23.90008926391602 15.068115234375 C -16.80406188964844 5.697555541992188 -6.548294067382813 -4.202556610107422 8.340812683105469 -4.202556610107422 Z" stroke="none" fill="#707070"/>
    </g>
    <g id="Trazado_34" data-name="Trazado 34" transform="translate(20.888 3.713)" fill="none">
      <path d="M-8.2-2.2C9.6-2,75.4,17,75.4,17l-3.2,5.4s-84.6-3.2-89-6.8S-26-2.4-8.2-2.2Z" stroke="none"/>
      <path d="M -8.564617156982422 0.7979850769042969 C -11.49333953857422 0.7979850769042969 -13.78755569458008 1.236431121826172 -15.38352203369141 2.101154327392578 C -16.50432586669922 2.708415985107422 -17.22788238525391 3.504354476928711 -17.59555816650391 4.534415245056152 C -18.0667724609375 5.854538917541504 -17.96775817871094 7.592276573181152 -17.3167724609375 9.427522659301758 C -16.71222686767578 11.1318883895874 -15.77046203613281 12.4875545501709 -15.04846954345703 13.14956378936768 C -14.71558380126953 13.27535247802734 -13.54183197021484 13.63923263549805 -10.13491058349609 14.12967681884766 C -7.417972564697266 14.52079963684082 -3.762603759765625 14.92521476745605 0.729644775390625 15.3316764831543 C 8.350688934326172 16.0212459564209 18.45461273193359 16.72581481933594 30.76072120666504 17.42578506469727 C 48.14881134033203 18.41482925415039 65.11142730712891 19.11643600463867 70.53063201904297 19.33224296569824 L 70.83448791503906 18.81948661804199 C 64.92668151855469 17.1506404876709 52.73320770263672 13.75695991516113 39.53182983398438 10.38150787353516 C 15.32570648193359 4.192246437072754 -1.191326141357422 0.8789691925048828 -8.233787536621094 0.7998619079589844 C -8.345172882080078 0.7985992431640625 -8.455173492431641 0.7979850769042969 -8.564617156982422 0.7979850769042969 M -8.564617156982422 -2.202014923095703 C -8.443992614746094 -2.202014923095703 -8.322723388671875 -2.201332092285156 -8.199954986572266 -2.199953079223633 C 9.600090026855469 -2 75.39990234375 17 75.39990234375 17 L 72.199951171875 22.3999080657959 C 72.199951171875 22.3999080657959 -12.39990997314453 19.19995307922363 -16.800048828125 15.6000919342041 C -21.16985321044922 12.02507400512695 -25.93339538574219 -2.202014923095703 -8.564617156982422 -2.202014923095703 Z" stroke="none" fill="#707070"/>
    </g>
    <path id="Trazado_36" data-name="Trazado 36" d="M139.015-9c74.076,0,122,28.228,122,58.535s-52.81,62.84-126.887,62.84S0,87.806,0,57.5,64.938-9,139.015-9Z" transform="matrix(0.996, -0.087, 0.087, 0.996, 97.073, 225.037)" fill="rgba(245,243,221,0.39)"/>
    <path id="Trazado_37" data-name="Trazado 37" d="M2309.667,3761.167c4,2.667,23,10.167,37.667,8.833s22.667-5.4,30.667-12.4,11.667-17.933,11.667-17.933" transform="translate(-2223.112 -3688.287)" fill="url(#radial-gradient-2)"/>
  </g>
</svg>
